<svg fill="#00DCFF" xmlns="http://www.w3.org/2000/svg" xmlns:xlink="http://www.w3.org/1999/xlink" version="1.1" x="0px" y="0px" viewBox="0 0 51 51" style="enable-background:new 0 0 51 51;" xml:space="preserve"><style type="text/css">
	.st0{fill:none;stroke:#00DCFF;stroke-width:2;stroke-miterlimit:10;}
	.st1{fill:none;stroke:#00DCFF;stroke-width:2;stroke-linecap:round;stroke-miterlimit:10;stroke-dasharray:0.3,4;}
	.st2{fill:none;stroke:#00DCFF;stroke-width:2;stroke-linecap:round;stroke-linejoin:round;stroke-miterlimit:10;}
	.st3{fill:none;stroke:#00DCFF;stroke-width:2;stroke-miterlimit:10;stroke-dasharray:2,3.85;}
	.st4{fill:none;stroke:#00DCFF;stroke-width:2;stroke-linejoin:round;stroke-miterlimit:10;}
	.st5{fill:none;stroke:#00DCFF;stroke-width:2;stroke-miterlimit:10;stroke-dasharray:2,3;}
</style><g><path class="st0" d="M30.8,22.1v16.4c0,1.3-1.1,2.4-2.4,2.4H15.2l-7.9,5.2l0-5.2H3.9c-1.3,0-2.4-1.1-2.4-2.4V22.1   c0-1.3,1.1-2.4,2.4-2.4h24.4C29.7,19.6,30.8,20.7,30.8,22.1z"></path><line class="st0" x1="8.8" y1="25.6" x2="23.5" y2="25.6"></line><line class="st0" x1="5.8" y1="30.4" x2="26.5" y2="30.4"></line><line class="st0" x1="8.8" y1="35.1" x2="23.5" y2="35.1"></line><line class="st0" x1="45.2" y1="10.8" x2="24.5" y2="10.8"></line><line class="st0" x1="45.2" y1="15.6" x2="24.5" y2="15.6"></line><line class="st0" x1="42.2" y1="20.4" x2="33.4" y2="20.4"></line><path class="st0" d="M30.8,26.1h5l7.9,5.2l0-5.2h3.3c1.3,0,2.4-1.1,2.4-2.4V7.3c0-1.3-1.1-2.4-2.4-2.4H22.6   c-1.3,0-2.4,1.1-2.4,2.4v12.3"></path></g></svg>