<svg fill="#00DCFF" xmlns="http://www.w3.org/2000/svg" xmlns:xlink="http://www.w3.org/1999/xlink" version="1.1" x="0px" y="0px" viewBox="0 0 30 30" enable-background="new 0 0 30 30" xml:space="preserve"><path fill-rule="evenodd" clip-rule="evenodd" d="M14.988,16.355c-2.773,1.921-6,5.455-6,8.575c0,3.862,0,4.827,0,5.031h-2  c0,0,0-1.095,0-5.031c0-5.079,4.006-8.285,7-10.563c3.686-2.805,7-6.176,7-9.405c0-4.969,0-5.001,0-5.001h2c0,0.323,0,1.467,0,5.001  C22.988,9.898,18.035,14.244,14.988,16.355z M10.988,1.962h8v2h-8V1.962z M11.113,5.962h7.719c0,0-0.133,0.452-0.4,0.987  c-0.229,0.459-0.693,1.013-0.693,1.013h-5.5c0,0-0.425-0.505-0.725-0.997C11.22,6.482,11.113,5.962,11.113,5.962z M11.31,12.962  c0,0-2.065-1.854-3.429-4.312C7.443,7.863,6.988,6.695,6.988,4.962c0-3.07,0-2.789,0-5.001h2c0,1.536,0,2.934,0,5.001  c0,1.39,0.429,2.067,0.857,2.862c1.156,2.152,3.143,3.81,3.143,3.81L11.31,12.962z M18.988,27.962h-8v-2.001h8V27.962z   M18.832,23.961h-7.719c0,0,0.106-0.52,0.4-1.003c0.3-0.492,0.725-0.997,0.725-0.997h5.5c0,0,0.464,0.554,0.693,1.013  C18.699,23.509,18.832,23.961,18.832,23.961z M16.988,17.962l1.688-1.375c0,0,2.076,1.92,3.447,4.465  c1.042,1.936,0.865,4.95,0.865,8.91H21c0-0.015,0-0.017,0-0.036c0-3.156,0.053-6.405-0.853-8.018  C18.856,19.609,16.988,17.962,16.988,17.962z M20.988,29.962H21C20.998,30.12,20.988,29.962,20.988,29.962z"></path></svg>