<svg fill="#00DCFF" xmlns="http://www.w3.org/2000/svg" data-name="Layer 1" viewBox="0 0 34.13 33.75" x="0px" y="0px"><defs><style>.cls-1{fill:none;}</style></defs><title>Artboard 1 copy 4</title><path class="cls-1" d="M20.46,10.19l-.53.61-.31-.74a38.2,38.2,0,0,0-3.21-6,26.26,26.26,0,0,0-5.84,8.56,21.15,21.15,0,0,0-1.53,6,10.84,10.84,0,0,0,.52,5.09,9,9,0,0,0,5,5.48A6.38,6.38,0,0,1,12,25.85a7.33,7.33,0,0,1-.35-3.45,13.86,13.86,0,0,1,1-3.93,16.26,16.26,0,0,1,4.1-5.84l.21-.17.16.22a24.82,24.82,0,0,1,2.12,3.8c.4-.44.66-.71.67-.72l.2-.2.18.22c.14.17,3.34,4.19,3.26,8.29,0,.06-.08,1-.09,1a6,6,0,0,1-2.8,4.09A8.59,8.59,0,0,0,26,22.66c0-.11.12-1.38.13-1.52C26.22,15.93,22.64,10.6,21.5,9,21.24,9.3,20.88,9.7,20.46,10.19Z"></path><path class="cls-1" d="M23,25c0-.07.08-.89.08-1,.06-3.38-2.31-6.83-3-7.73-.16.17-.41.44-.71.79l-.26.3L18.94,17a24.28,24.28,0,0,0-2.07-3.84,16.52,16.52,0,0,0-3.75,5.47,13.37,13.37,0,0,0-1,3.79,6.89,6.89,0,0,0,.33,3.23A5.57,5.57,0,0,0,17,29.53,5.45,5.45,0,0,0,23,25Z"></path><path d="M21.93,7.94l-.35-.44-.39.4s-.38.38-1,1A38.69,38.69,0,0,0,16.91,3l-.31-.44-.42.34a25.93,25.93,0,0,0-6.54,9.31A22.16,22.16,0,0,0,8,18.51,11.74,11.74,0,0,0,8.6,24a9.75,9.75,0,0,0,8,6.7A9.52,9.52,0,0,0,27,22.83c0-.11.14-1.57.14-1.67h0C27.25,14.62,22.15,8.21,21.93,7.94ZM17,29.53a5.57,5.57,0,0,1-4.55-3.84,6.89,6.89,0,0,1-.33-3.23,13.37,13.37,0,0,1,1-3.79,16.52,16.52,0,0,1,3.75-5.47A24.28,24.28,0,0,1,18.94,17l.16.37.26-.3c.3-.34.55-.62.71-.79.67.9,3,4.35,3,7.73,0,.07-.07.9-.08,1A5.45,5.45,0,0,1,17,29.53Zm9-6.87a8.59,8.59,0,0,1-5.34,6.54,6,6,0,0,0,2.8-4.09c0-.07.09-1,.09-1,.08-4.1-3.12-8.12-3.26-8.29l-.18-.22-.2.2s-.27.28-.67.72a24.82,24.82,0,0,0-2.12-3.8L17,12.47l-.21.17a16.26,16.26,0,0,0-4.1,5.84,13.86,13.86,0,0,0-1,3.93A7.33,7.33,0,0,0,12,25.85a6.38,6.38,0,0,0,2.59,3.33,9,9,0,0,1-5-5.48A10.84,10.84,0,0,1,9,18.62a21.15,21.15,0,0,1,1.53-6,26.26,26.26,0,0,1,5.84-8.56,38.2,38.2,0,0,1,3.21,6l.31.74.53-.61c.42-.49.79-.88,1-1.16,1.14,1.57,4.73,6.9,4.63,12.11C26.12,21.29,26,22.55,26,22.66Z"></path></svg>