<svg fill="#00DCFF" xmlns="http://www.w3.org/2000/svg" xmlns:xlink="http://www.w3.org/1999/xlink" version="1.1" x="0px" y="0px" viewBox="0 0 100 100" enable-background="new 0 0 100 100" xml:space="preserve"><g><path d="M50.429,58.801c-1.881,0.091-3.723-0.415-5.285-1.449l-0.256-0.17l-15.361,8.752l0.373,0.458   c4.936,6.067,12.27,9.547,20.123,9.547c3.052,0,6.05-0.534,8.913-1.589l0.554-0.203l-8.752-15.361L50.429,58.801z M50.022,74.938   c-7.353,0-14.232-3.172-18.969-8.724l13.8-7.862c1.595,0.984,3.406,1.476,5.315,1.457l7.863,13.8   C55.45,74.491,52.758,74.938,50.022,74.938z"></path><path d="M92.348,54.952l0.055-9.42l-7.414-0.043c-0.383-2.967-1.152-5.889-2.292-8.697l6.454-3.677l-4.663-8.186l-3.891,2.216   l-0.001-0.002l-2.564,1.461c-1.834-2.411-3.954-4.562-6.312-6.404l3.744-6.4l-8.131-4.756l-3.749,6.407   c-2.778-1.158-5.691-1.956-8.673-2.377l0.042-7.423l-9.42-0.054l-0.042,7.415c-2.966,0.382-5.886,1.151-8.695,2.29l-3.429-6.019   l-0.146-0.252h-0.423l-7.866,4.481l3.678,6.454c-2.413,1.836-4.564,3.957-6.405,6.314l-6.4-3.744l-4.757,8.132l6.407,3.748   c-1.158,2.78-1.956,5.694-2.377,8.674l-7.423-0.043l-0.054,9.42l7.415,0.042c0.382,2.966,1.151,5.887,2.29,8.695l-6.452,3.681   l4.663,8.185l6.455-3.678c1.836,2.414,3.958,4.565,6.314,6.405l-3.744,6.4l8.131,4.757l3.748-6.407   c2.778,1.157,5.691,1.956,8.673,2.378l-0.042,7.422l9.42,0.055l0.042-7.414c2.968-0.383,5.89-1.152,8.698-2.292l3.678,6.454   l8.185-4.664l-2.285-4.009l0.002-0.002l-1.393-2.444c2.412-1.835,4.562-3.955,6.403-6.312l6.4,3.744l4.757-8.131l-6.407-3.749   c1.158-2.778,1.956-5.691,2.377-8.673L92.348,54.952z M83.992,54.344c-0.409,3.188-1.263,6.301-2.535,9.251l-0.176,0.406   l6.307,3.688l-3.747,6.406l-6.3-3.686l-0.269,0.353c-1.931,2.539-4.228,4.804-6.828,6.732l-0.356,0.264l1.453,2.549l-0.002,0.002   l2.168,3.804l-6.448,3.674l-3.619-6.354l-0.408,0.172c-2.985,1.254-6.106,2.076-9.276,2.442L53.516,84.1l-0.042,7.297l-7.42-0.043   l0.042-7.304l-0.438-0.057c-3.189-0.41-6.302-1.264-9.251-2.536l-0.406-0.176l-3.689,6.307l-6.405-3.747l3.685-6.3l-0.353-0.269   c-2.538-1.929-4.804-4.228-6.733-6.83l-0.264-0.356l-6.354,3.621l-3.675-6.45l6.353-3.62l-0.171-0.408   c-1.253-2.986-2.075-6.106-2.441-9.273l-0.051-0.439l-7.297-0.042l0.042-7.42l7.305,0.042l0.057-0.438   c0.41-3.187,1.263-6.3,2.535-9.252l0.175-0.406l-6.305-3.689l3.747-6.405l6.299,3.685l0.268-0.353   c1.931-2.539,4.229-4.805,6.83-6.734l0.356-0.264l-3.62-6.353l6.45-3.674l3.62,6.353l0.408-0.172   c2.985-1.254,6.105-2.075,9.273-2.442l0.44-0.051l0.042-7.297l7.42,0.042l-0.042,7.305l0.439,0.057   c3.188,0.41,6.301,1.263,9.251,2.535l0.406,0.175l3.688-6.305l6.406,3.747l-3.686,6.299l0.353,0.268   c2.54,1.932,4.805,4.229,6.732,6.829l0.264,0.356l2.415-1.376l0.001,0.002l3.939-2.244l3.673,6.447l-6.354,3.62l0.172,0.409   c1.254,2.984,2.076,6.105,2.442,9.275l0.052,0.44l7.297,0.042l-0.043,7.42l-7.305-0.042L83.992,54.344z"></path><path d="M49.576,41.205c1.873-0.089,3.727,0.417,5.282,1.439l0.256,0.168l15.357-8.75l-0.373-0.458   c-4.936-6.065-12.27-9.543-20.121-9.543c-3.051,0-6.048,0.534-8.91,1.587l-0.554,0.204l8.755,15.367L49.576,41.205z M49.978,25.062   c7.351,0,14.229,3.17,18.966,8.72l-13.798,7.862c-1.545-0.948-3.321-1.448-5.157-1.448c-0.051,0-0.101,0-0.151,0.001l-7.867-13.808   C44.552,25.508,47.243,25.062,49.978,25.062z"></path><path d="M74.146,40.512l-15.358,8.75l0.015,0.306c0.087,1.865-0.428,3.743-1.448,5.286l-0.17,0.256l8.752,15.362l0.458-0.373   c8.581-6.983,11.778-18.651,7.955-29.034L74.146,40.512z M66.218,68.945l-7.862-13.801c0.972-1.58,1.482-3.444,1.455-5.314   l13.799-7.862C76.907,51.622,73.977,62.321,66.218,68.945z"></path><path d="M41.199,50.428c-0.087-1.845,0.429-3.719,1.454-5.278l0.168-0.256l-8.755-15.367l-0.458,0.373   c-8.582,6.982-11.781,18.65-7.959,29.033l0.204,0.554l15.36-8.751L41.199,50.428z M26.389,58.028   c-3.297-9.653-0.364-20.352,7.396-26.975l7.867,13.808c-0.975,1.591-1.488,3.453-1.461,5.304L26.389,58.028z"></path></g></svg>