<svg fill="#00DCFF" xmlns="http://www.w3.org/2000/svg" xmlns:xlink="http://www.w3.org/1999/xlink" version="1.1" x="0px" y="0px" viewBox="0 0 100 100" enable-background="new 0 0 100 100" xml:space="preserve"><path fill="#00DCFF" d="M89.693,50.625c0-0.414,0.336-0.75,0.75-0.75H90.6h0.28l0.542-0.102l0.871-0.218l1.102-0.403l1.243-0.572  l-0.04-0.899l-1.261-0.442l-1.15-0.334l-0.894-0.144l-0.623-0.073h-0.107c-0.058,0.027-0.116,0.047-0.177,0.059  c-0.014,0.002-0.024,0.011-0.038,0.013c-0.033,0.005-0.064,0.007-0.097,0.007c-0.001,0-0.001,0-0.001,0s-0.001,0-0.002,0h-0.001  c-0.112,0-0.216-0.031-0.312-0.077c-0.027-0.013-0.05-0.029-0.075-0.045c-0.076-0.047-0.141-0.104-0.195-0.176  c-0.012-0.015-0.029-0.021-0.04-0.036c-0.006-0.009-0.006-0.02-0.012-0.027c-0.03-0.051-0.048-0.107-0.066-0.164  c-0.012-0.035-0.028-0.068-0.034-0.105c-0.002-0.007-0.006-0.012-0.006-0.012l-0.157-1.18l0.001-0.008  c-0.001-0.004-0.004-0.008-0.004-0.012l-0.117-1.094c-0.002-0.014,0.005-0.026,0.004-0.041c-0.003-0.051,0.006-0.1,0.014-0.15  c0.008-0.047,0.012-0.094,0.027-0.137c0.015-0.042,0.039-0.078,0.062-0.117c0.026-0.047,0.052-0.093,0.088-0.133  c0.009-0.01,0.012-0.022,0.021-0.032l0.078-0.078c0.017-0.017,0.038-0.022,0.056-0.037c0.039-0.032,0.081-0.06,0.127-0.084  c0.045-0.024,0.089-0.044,0.138-0.058c0.022-0.007,0.039-0.021,0.062-0.026l0.342-0.068l0.512-0.171l0.78-0.354l1.037-0.631  l1.135-0.756l-0.186-0.838l-1.294-0.232L91,39.812h-0.947h-0.541l-0.185,0.041l-0.072,0.036c-0.02,0.01-0.04,0.007-0.06,0.015  c-0.025,0.01-0.043,0.027-0.069,0.035c-0.068,0.021-0.137,0.029-0.204,0.029h-0.001c-0.001,0-0.001,0-0.001,0  c-0.126,0-0.244-0.04-0.352-0.098c-0.019-0.01-0.036-0.018-0.054-0.028c-0.101-0.065-0.182-0.155-0.242-0.264  c-0.006-0.011-0.019-0.015-0.023-0.025c-0.009-0.019-0.008-0.038-0.015-0.056c-0.011-0.025-0.027-0.047-0.035-0.073l-0.31-1.083  l-0.344-1.109l-0.002-0.003l-0.001-0.003l-0.003-0.012c-0.011-0.035-0.005-0.07-0.011-0.107c-0.01-0.061-0.024-0.123-0.02-0.183  c0.004-0.042,0.023-0.079,0.033-0.118c0.015-0.054,0.022-0.107,0.047-0.156c0.021-0.041,0.057-0.073,0.085-0.109  c0.03-0.04,0.054-0.083,0.093-0.116c0.032-0.028,0.076-0.044,0.114-0.065c0.045-0.027,0.085-0.062,0.137-0.079l0.085-0.028  l0.282-0.125l0.476-0.271l0.723-0.543l0.947-0.758l0.984-0.984l-0.312-0.711h-1.395l-1.256,0.076l-0.818,0.102l-0.543,0.204  c-0.018,0.007-0.037,0.005-0.055,0.01c-0.017,0.005-0.029,0.017-0.046,0.021l-0.186,0.041c-0.02,0.013-0.031,0.032-0.052,0.043  c-0.011,0.006-0.022,0.004-0.033,0.008c-0.102,0.049-0.208,0.08-0.318,0.081l-0.003,0.001c0,0,0,0-0.001,0  c-0.117,0-0.23-0.037-0.338-0.092c-0.031-0.016-0.057-0.036-0.085-0.057c-0.036-0.025-0.075-0.039-0.107-0.071  c-0.038-0.038-0.058-0.085-0.086-0.129c-0.012-0.019-0.033-0.026-0.044-0.046l-0.543-1.008l-0.545-0.974  c-0.02-0.036-0.022-0.075-0.036-0.112c-0.018-0.049-0.039-0.094-0.046-0.145c-0.008-0.047-0.002-0.093,0-0.141  c0.002-0.049,0.001-0.096,0.013-0.144c0.011-0.046,0.033-0.086,0.053-0.129c0.02-0.045,0.036-0.09,0.065-0.13  c0.028-0.04,0.067-0.07,0.104-0.104c0.029-0.028,0.051-0.063,0.086-0.087l0.117-0.078c0.004-0.003,0.008-0.002,0.011-0.005  c0.003-0.002,0.005-0.005,0.008-0.007l0.253-0.158l0.456-0.421h0.001l0.624-0.588l0.772-0.92l0.78-1.119l-0.461-0.729l-1.352,0.264  l-1.152,0.298l-0.827,0.322l-0.567,0.266l-0.201,0.101c-0.003,0.003-0.007,0.003-0.009,0.006c-0.01,0.009-0.014,0.021-0.023,0.028  c-0.039,0.032-0.084,0.049-0.127,0.071c-0.028,0.016-0.054,0.036-0.083,0.048c-0.086,0.031-0.175,0.051-0.265,0.051  c-0.103,0-0.203-0.024-0.299-0.066c-0.031-0.013-0.056-0.038-0.085-0.056c-0.05-0.03-0.104-0.054-0.146-0.098  c-0.011-0.011-0.014-0.024-0.023-0.035c-0.008-0.009-0.019-0.011-0.026-0.021l-0.703-0.859c-0.006-0.007-0.006-0.016-0.012-0.021  c-0.005-0.006-0.012-0.008-0.017-0.015l-0.703-0.977c-0.003-0.005-0.003-0.01-0.007-0.015c-0.002-0.003-0.006-0.004-0.009-0.008  c-0.026-0.039-0.033-0.083-0.051-0.125c-0.021-0.046-0.047-0.09-0.057-0.139c-0.011-0.047-0.004-0.094-0.005-0.142  c0-0.049-0.008-0.097,0.001-0.144c0.009-0.049,0.032-0.092,0.05-0.137c0.018-0.044,0.028-0.09,0.054-0.13  c0.026-0.043,0.067-0.075,0.104-0.112c0.031-0.031,0.053-0.07,0.09-0.097c0.004-0.003,0.009-0.003,0.013-0.006  s0.006-0.007,0.01-0.01l0.082-0.055l0.146-0.122l0.368-0.469l0.511-0.729l0.603-1.056l0.597-1.192l-0.596-0.615l-1.301,0.445  l-1.082,0.47l-0.725,0.471l-0.525,0.375c-0.008,0.005-0.017,0.007-0.023,0.012c-0.006,0.004-0.009,0.011-0.015,0.014l-0.239,0.149  l-0.019,0.019c-0.046,0.046-0.102,0.071-0.155,0.103c-0.029,0.018-0.054,0.044-0.085,0.057c-0.093,0.039-0.19,0.061-0.29,0.061  c-0.093,0-0.186-0.019-0.272-0.053c-0.029-0.012-0.054-0.035-0.082-0.051c-0.051-0.027-0.104-0.05-0.148-0.09l-0.817-0.739  l-0.834-0.683c-0.018-0.014-0.025-0.035-0.041-0.051c-0.038-0.036-0.068-0.075-0.098-0.118c-0.026-0.039-0.05-0.077-0.068-0.12  c-0.019-0.045-0.031-0.09-0.041-0.137s-0.018-0.092-0.018-0.14c-0.002-0.048,0.004-0.093,0.013-0.141  c0.009-0.05,0.021-0.097,0.039-0.144c0.009-0.021,0.007-0.045,0.018-0.065l0.078-0.156c0.011-0.021,0.029-0.034,0.042-0.054  c0.012-0.02,0.015-0.043,0.029-0.062l0.198-0.265l0.276-0.518l0.373-0.822l0.443-1.108l0.343-1.3l-0.661-0.5l-1.183,0.676  l-1.003,0.706l-0.687,0.541l-0.427,0.463c-0.004,0.004-0.008,0.005-0.012,0.009s-0.005,0.009-0.009,0.013l-0.128,0.128  c-0.007,0.016-0.016,0.029-0.022,0.043c-0.01,0.018-0.011,0.037-0.021,0.055c-0.004,0.006-0.011,0.008-0.015,0.014  c-0.063,0.094-0.146,0.167-0.24,0.223c-0.021,0.012-0.04,0.02-0.061,0.029c-0.099,0.047-0.204,0.08-0.316,0.08h-0.001  c-0.074,0-0.148-0.014-0.221-0.035c-0.005-0.002-0.011-0.002-0.016-0.003c-0.014-0.005-0.023-0.016-0.036-0.021  c-0.045-0.018-0.09-0.033-0.131-0.06l-0.977-0.625c-0.002-0.001-0.003-0.003-0.005-0.005c-0.002-0.001-0.005-0.002-0.007-0.003  l-0.938-0.625c-0.104-0.069-0.176-0.163-0.232-0.265c-0.006-0.01-0.018-0.014-0.022-0.024c-0.015-0.029-0.015-0.061-0.024-0.091  c-0.018-0.049-0.033-0.096-0.04-0.147c-0.007-0.05-0.004-0.097-0.001-0.145c0.003-0.047,0.006-0.091,0.018-0.138  c0.014-0.051,0.035-0.097,0.06-0.145c0.014-0.027,0.017-0.059,0.035-0.086c0.009-0.013,0.022-0.02,0.031-0.031  s0.012-0.025,0.021-0.037l0.049-0.161c0.004-0.012,0.013-0.021,0.017-0.031s0.002-0.021,0.006-0.031l0.222-0.554l0.248-0.852  l0.184-1.177l0.105-1.368l-0.779-0.389l-0.997,0.867l-0.843,0.807l-0.544,0.762c-0.006,0.008-0.016,0.011-0.021,0.018  c-0.007,0.01-0.009,0.021-0.017,0.031l-0.384,0.453l-0.072,0.127l-0.014,0.055c-0.008,0.03-0.025,0.055-0.036,0.082  c-0.008,0.021-0.006,0.042-0.016,0.062c-0.009,0.019-0.022,0.031-0.032,0.048c-0.017,0.027-0.033,0.053-0.053,0.078  c-0.029,0.039-0.062,0.072-0.097,0.104c-0.021,0.02-0.043,0.039-0.066,0.055c-0.041,0.029-0.086,0.052-0.132,0.072  c-0.024,0.01-0.046,0.023-0.071,0.031c-0.068,0.021-0.141,0.034-0.214,0.035c-0.004,0-0.007,0.002-0.01,0.002h-0.001h-0.001  c0,0-0.001,0-0.002,0c-0.06-0.001-0.12-0.008-0.179-0.022c-0.028-0.007-0.05-0.026-0.076-0.036  c-0.022-0.008-0.046-0.005-0.067-0.016l-1.009-0.485l-1.013-0.338c-0.041-0.014-0.071-0.042-0.108-0.062  c-0.043-0.022-0.088-0.042-0.125-0.071c-0.038-0.031-0.065-0.07-0.097-0.107c-0.03-0.037-0.062-0.07-0.086-0.111  c-0.023-0.043-0.034-0.09-0.049-0.137c-0.015-0.045-0.032-0.088-0.038-0.135c-0.006-0.051,0.003-0.102,0.008-0.154  c0.003-0.039-0.005-0.076,0.005-0.115l0.034-0.137l0.075-0.376c0-0.002,0.001-0.003,0.002-0.005v-0.005l0.108-0.509l0.109-0.906  V9.569l-0.136-1.327l-0.798-0.24l-0.891,1.055l-0.7,0.959l-0.434,0.76l-0.241,0.516l-0.098,0.293l-0.03,0.121  c0,0-0.005,0.009-0.006,0.014l-0.001,0.011c-0.012,0.04-0.035,0.073-0.053,0.11c-0.017,0.035-0.027,0.074-0.05,0.105  c-0.025,0.038-0.061,0.067-0.093,0.1c-0.024,0.025-0.045,0.055-0.073,0.075c-0.039,0.03-0.085,0.048-0.129,0.069  c-0.028,0.014-0.053,0.033-0.083,0.044c-0.066,0.022-0.137,0.032-0.208,0.034c-0.011,0.001-0.021,0.006-0.031,0.006c0,0,0,0-0.001,0  c-0.002,0-0.004-0.001-0.006-0.001c-0.059-0.001-0.117-0.007-0.176-0.021c-0.004-0.001-0.006-0.004-0.01-0.005  c-0.005-0.002-0.01,0-0.015-0.002l-1.054-0.301l-1.06-0.189c-0.028-0.005-0.05-0.022-0.077-0.031c-0.05-0.014-0.096-0.03-0.14-0.055  c-0.043-0.022-0.081-0.049-0.118-0.079c-0.036-0.03-0.069-0.061-0.1-0.097c-0.032-0.038-0.058-0.077-0.081-0.121  c-0.022-0.04-0.041-0.08-0.056-0.125c-0.017-0.049-0.024-0.098-0.03-0.149c-0.003-0.028-0.017-0.052-0.017-0.081v-0.156  c0-0.016,0.008-0.027,0.009-0.042s-0.006-0.026-0.004-0.041l0.034-0.308v-0.59l-0.073-0.914l-0.221-1.14l-0.347-1.319l-0.842-0.112  l-0.656,1.142l-0.524,1.123l-0.321,0.82l-0.136,0.576l-0.033,0.302c-0.002,0.019-0.013,0.032-0.016,0.05  c-0.003,0.017,0.002,0.033-0.002,0.049l-0.039,0.156c-0.007,0.029-0.024,0.053-0.035,0.08c-0.014,0.037-0.026,0.07-0.046,0.104  c-0.026,0.047-0.059,0.087-0.093,0.127c-0.023,0.025-0.044,0.052-0.069,0.074c-0.044,0.037-0.093,0.064-0.143,0.09  c-0.027,0.015-0.052,0.033-0.08,0.043c-0.083,0.031-0.17,0.051-0.261,0.051c-0.018,0-0.035-0.001-0.053-0.002L52.384,11.1  l-1.133-0.078c-0.042-0.003-0.077-0.022-0.117-0.032c-0.05-0.012-0.1-0.019-0.146-0.04c-0.044-0.021-0.078-0.051-0.117-0.079  s-0.08-0.053-0.113-0.089c-0.032-0.034-0.053-0.075-0.078-0.115c-0.026-0.041-0.056-0.08-0.073-0.127  c-0.018-0.045-0.021-0.094-0.028-0.143c-0.008-0.041-0.025-0.079-0.025-0.123c0-0.01,0.005-0.018,0.005-0.026  c0.001-0.009-0.004-0.017-0.003-0.025l0.002-0.007c0-0.007-0.004-0.013-0.004-0.013v-0.27l-0.137-0.581V9.35l-0.222-0.887  l-0.405-1.105l-0.575-1.285L48.418,6.09l-0.504,1.333l-0.33,1.175l-0.145,0.826l-0.035,0.604v0.324v0.156  c0,0.033-0.015,0.062-0.02,0.095c-0.006,0.052-0.013,0.101-0.029,0.148c-0.016,0.046-0.038,0.085-0.062,0.126  c-0.023,0.042-0.048,0.082-0.08,0.119c-0.031,0.035-0.066,0.064-0.104,0.094s-0.075,0.057-0.118,0.08  c-0.045,0.021-0.091,0.035-0.14,0.049c-0.032,0.008-0.06,0.027-0.094,0.032l-1.133,0.156c-0.007,0.001-0.014,0.001-0.021,0.001  c-0.002,0-0.003,0.002-0.005,0.002l-1.133,0.117c-0.026,0.003-0.052,0.004-0.077,0.004h-0.001c-0.002,0-0.003-0.001-0.005-0.001  c-0.085-0.001-0.167-0.019-0.245-0.046c-0.028-0.01-0.051-0.025-0.077-0.038c-0.05-0.024-0.098-0.052-0.141-0.087  c-0.025-0.021-0.046-0.043-0.068-0.066c-0.036-0.038-0.068-0.078-0.096-0.124c-0.019-0.029-0.033-0.058-0.048-0.091  c-0.009-0.021-0.023-0.037-0.031-0.06l-0.039-0.117c-0.008-0.023-0.003-0.047-0.009-0.071c-0.006-0.025-0.02-0.047-0.023-0.073  l-0.026-0.214l-0.228-0.552l-0.377-0.83l-0.581-1.052l-0.853-1.102l-0.734,0.15l-0.283,1.383l-0.111,1.186v0.892l0.072,0.578  c0,0-0.001,0.007-0.001,0.01c0,0,0.003,0.006,0.003,0.009l0.033,0.336l0.026,0.104c0.015,0.059,0.007,0.114,0.008,0.172  c0.001,0.041,0.012,0.082,0.006,0.121c-0.009,0.055-0.034,0.102-0.054,0.152c-0.016,0.039-0.021,0.082-0.043,0.119  c-0.025,0.042-0.064,0.073-0.098,0.109c-0.031,0.035-0.056,0.076-0.094,0.104c-0.041,0.031-0.093,0.046-0.141,0.068  c-0.042,0.021-0.078,0.048-0.124,0.061l-0.006,0.001C40,12.562,40,12.563,40,12.563h-0.001l-1.023,0.266l-1.076,0.346  c-0.075,0.024-0.151,0.035-0.227,0.036c-0.001,0-0.001,0-0.001,0c-0.002,0-0.002,0-0.002,0c-0.127,0-0.246-0.04-0.355-0.1  c-0.016-0.008-0.031-0.014-0.047-0.023c-0.102-0.064-0.183-0.156-0.244-0.266c-0.006-0.011-0.019-0.015-0.024-0.026  c-0.007-0.013-0.006-0.028-0.012-0.042c-0.013-0.023-0.031-0.042-0.042-0.066L36.8,12.359l-0.274-0.514L36.02,11.16l-0.778-0.965  L34.24,9.229l-0.742,0.301v1.447l0.111,1.191l0.147,0.881l0.14,0.523v0.001l0.086,0.285l0.015,0.022  c0.014,0.021,0.016,0.045,0.027,0.066c0.011,0.021,0.03,0.035,0.039,0.058c0.011,0.024,0.008,0.052,0.016,0.077  c0.015,0.049,0.026,0.097,0.03,0.146c0.005,0.049,0.004,0.095-0.001,0.143c-0.005,0.047-0.013,0.092-0.026,0.138  s-0.031,0.089-0.055,0.132c-0.021,0.042-0.047,0.08-0.076,0.118c-0.031,0.039-0.066,0.073-0.105,0.105  c-0.021,0.018-0.033,0.041-0.057,0.057c-0.027,0.019-0.057,0.026-0.086,0.04c-0.014,0.008-0.023,0.02-0.038,0.026l-0.954,0.403  l-0.926,0.593c-0.015,0.009-0.031,0.013-0.046,0.021c-0.009,0.006-0.015,0.014-0.023,0.019c-0.012,0.006-0.024,0.003-0.036,0.009  c-0.097,0.042-0.197,0.07-0.298,0.07c-0.13,0-0.257-0.038-0.371-0.104c-0.038-0.021-0.062-0.06-0.095-0.088  c-0.059-0.049-0.124-0.087-0.167-0.154c-0.01-0.015-0.01-0.031-0.019-0.047c-0.005-0.01-0.016-0.013-0.021-0.022l-0.048-0.096  l-0.171-0.228l-0.358-0.395l-0.672-0.71l-0.883-0.735l-1.16-0.809l-0.698,0.453l0.237,1.35l0.339,1.168l0.286,0.824l0.26,0.556  c0.001,0.002,0.001,0.005,0.001,0.005c0.002,0.004,0.004,0.006,0.004,0.006l0.113,0.255c0.012,0.014,0.028,0.021,0.04,0.036  c0.02,0.026,0.024,0.058,0.04,0.086c0.024,0.043,0.048,0.086,0.062,0.133s0.022,0.094,0.027,0.143  c0.006,0.047,0.01,0.091,0.006,0.139c-0.003,0.049-0.015,0.094-0.027,0.141c-0.013,0.046-0.025,0.089-0.047,0.132  c-0.022,0.046-0.052,0.085-0.083,0.126c-0.02,0.024-0.029,0.055-0.052,0.077c-0.014,0.014-0.032,0.019-0.047,0.031  s-0.022,0.03-0.038,0.042l-0.885,0.654l-0.88,0.727c-0.026,0.021-0.058,0.031-0.087,0.049c-0.021,0.014-0.033,0.033-0.056,0.044  c-0.012,0.006-0.024,0.003-0.036,0.009c-0.095,0.041-0.193,0.069-0.295,0.07h-0.003c-0.001,0-0.001,0-0.001,0  c-0.124,0-0.242-0.039-0.354-0.099c-0.034-0.019-0.06-0.047-0.092-0.071c-0.045-0.034-0.096-0.057-0.133-0.103  c-0.019-0.022-0.023-0.05-0.039-0.073l-0.217-0.217l-0.441-0.408l-0.76-0.47c0,0-0.001-0.001-0.002-0.001  c0,0-0.002-0.002-0.003-0.002l-1.011-0.637l-1.194-0.549l-0.665,0.588l0.448,1.275l0.518,1.036l0.438,0.839l0.351,0.457  c0.001,0.002,0.001,0.003,0.001,0.003c0.002,0.003,0.003,0.003,0.004,0.004l0.202,0.27l0.041,0.041  c0.033,0.032,0.048,0.074,0.074,0.111c0.029,0.043,0.065,0.081,0.085,0.128s0.022,0.096,0.032,0.144  c0.009,0.046,0.025,0.091,0.026,0.138c0.001,0.049-0.016,0.095-0.023,0.143c-0.009,0.047-0.01,0.095-0.027,0.14  c-0.018,0.044-0.051,0.081-0.077,0.122c-0.025,0.041-0.042,0.086-0.076,0.122l-0.728,0.767l-0.773,0.889  c-0.043,0.051-0.101,0.078-0.152,0.113c-0.03,0.021-0.055,0.049-0.087,0.064c-0.104,0.05-0.214,0.08-0.327,0.08  c-0.001,0-0.001,0-0.001,0c-0.079,0-0.158-0.016-0.235-0.042c-0.026-0.009-0.05-0.023-0.075-0.034  c-0.035-0.017-0.071-0.027-0.104-0.05l-0.117-0.078c-0.012-0.009-0.019-0.021-0.029-0.03c-0.014-0.01-0.03-0.014-0.043-0.024  l-0.235-0.202l-0.452-0.29l-0.818-0.356l-1.129-0.414l-1.29-0.363l-0.536,0.715l0.659,1.186l0.7,0.959l0.588,0.697l0.348,0.348  l0.239,0.149c0.003,0.002,0.005,0.005,0.008,0.007c0.003,0.003,0.007,0.002,0.011,0.005l0.117,0.078  c0.001,0.001,0.002,0.002,0.002,0.002c0.002,0.001,0.003,0.001,0.004,0.002c0.047,0.032,0.076,0.077,0.114,0.116  c0.029,0.031,0.067,0.058,0.091,0.094c0.034,0.052,0.05,0.111,0.07,0.17c0.011,0.032,0.031,0.062,0.038,0.096  c0.012,0.061,0.004,0.121,0.001,0.184c-0.002,0.035,0.006,0.068,0,0.104c-0.011,0.054-0.041,0.104-0.063,0.154  c-0.018,0.04-0.024,0.082-0.049,0.119l-0.002,0.002c-0.001,0.002-0.001,0.003-0.002,0.004l-0.649,0.955l-0.571,0.99  c-0.004,0.006-0.011,0.008-0.015,0.015c-0.005,0.009-0.005,0.019-0.011,0.026c-0.045,0.067-0.111,0.107-0.172,0.154  c-0.033,0.027-0.058,0.064-0.095,0.086c-0.11,0.06-0.233,0.094-0.358,0.094c-0.117,0-0.233-0.035-0.344-0.092  c-0.01-0.006-0.021-0.003-0.03-0.009c-0.006-0.003-0.009-0.01-0.015-0.013c-0.009-0.006-0.019-0.008-0.026-0.013l-0.079-0.053  l-0.219-0.109l-0.539-0.18c-0.001-0.001-0.002-0.001-0.003-0.002l-0.905-0.29l-1.185-0.185l-1.321-0.132l-0.4,0.781l0.888,1.023  l0.831,0.831l0.679,0.606l0.463,0.299l0.276,0.138c0.015,0.007,0.023,0.021,0.037,0.028c0.015,0.009,0.03,0.01,0.044,0.019  l0.117,0.078c0.026,0.018,0.041,0.044,0.064,0.064c0.039,0.034,0.075,0.066,0.105,0.106c0.029,0.038,0.052,0.078,0.073,0.121  s0.041,0.084,0.054,0.131c0.014,0.047,0.019,0.092,0.023,0.141c0.004,0.047,0.006,0.092,0,0.141  c-0.005,0.05-0.019,0.098-0.035,0.146c-0.009,0.029-0.008,0.059-0.021,0.088l-0.455,0.986l-0.379,1.061  c-0.006,0.018-0.018,0.029-0.025,0.046c-0.005,0.013-0.004,0.025-0.01,0.037s-0.019,0.017-0.025,0.027  c-0.062,0.11-0.144,0.202-0.246,0.267c-0.014,0.01-0.027,0.014-0.041,0.021c-0.11,0.061-0.231,0.1-0.358,0.1h-0.001  c-0.001,0-0.002,0-0.003,0c-0.082-0.001-0.166-0.014-0.248-0.044c-0.017-0.006-0.027-0.019-0.043-0.025  c-0.013-0.006-0.027-0.003-0.04-0.01l-0.042-0.021l-0.185-0.023c-0.008-0.001-0.014-0.006-0.021-0.008  c-0.019-0.002-0.038-0.002-0.058-0.006l-0.615-0.145l-0.842-0.07h-1.189l-1.37,0.134l-0.255,0.784l1.03,0.897l0.993,0.662  l0.773,0.442l0.548,0.256l0.239,0.105c0.004,0,0.008,0.002,0.013,0.003c0.03,0.003,0.061-0.004,0.091,0.005  c0.02,0.004,0.033,0.018,0.052,0.023c0.05,0.018,0.094,0.04,0.139,0.066c0.041,0.023,0.079,0.047,0.114,0.077  c0.037,0.031,0.065,0.067,0.096,0.105c0.029,0.038,0.058,0.075,0.079,0.118c0.021,0.041,0.034,0.084,0.047,0.129  c0.015,0.05,0.026,0.098,0.03,0.15c0.002,0.02,0.012,0.037,0.012,0.057c0,0.032-0.015,0.06-0.019,0.09  c-0.003,0.031,0.004,0.061-0.004,0.092l-0.269,1.074l-0.23,1.15l-0.001,0.007c-0.019,0.095-0.058,0.181-0.106,0.257  c-0.002,0.004-0.002,0.008-0.005,0.012c-0.007,0.01-0.019,0.014-0.026,0.023c-0.059,0.079-0.131,0.143-0.215,0.193  c-0.023,0.015-0.046,0.029-0.072,0.041c-0.097,0.045-0.199,0.076-0.31,0.076c-0.001,0-0.001,0-0.001,0h-0.001  c-0.001,0-0.003,0-0.003,0c-0.048-0.001-0.096-0.006-0.144-0.015c-0.009-0.002-0.016-0.009-0.024-0.011  c-0.049-0.012-0.096-0.031-0.143-0.053h-0.154h-0.637l-0.859,0.072L8.5,43.545l-1.336,0.377l-0.122,0.779l1.212,0.727l1.066,0.479  l0.839,0.292l0.59,0.185l0.247,0.055h0.072c0.014,0,0.025,0.007,0.039,0.008c0.014,0,0.026-0.006,0.041-0.004  c0.039,0.004,0.07,0.023,0.106,0.033c0.048,0.014,0.096,0.023,0.14,0.045s0.081,0.051,0.119,0.08s0.075,0.055,0.107,0.09  c0.033,0.037,0.056,0.079,0.081,0.121c0.024,0.041,0.049,0.078,0.065,0.123c0.017,0.048,0.022,0.098,0.029,0.15  c0.006,0.035,0.021,0.066,0.021,0.104c0,0.014-0.007,0.025-0.008,0.039s0.006,0.026,0.004,0.041l-0.113,1.057v1.129  c0,0.414-0.336,0.75-0.75,0.75h-0.117h-0.263L9.99,50.34c0,0-0.002,0-0.004,0l-0.885,0.222L8,50.965l-1.239,0.57l0.037,0.861  l1.284,0.439l1.168,0.301l0.884,0.185l0.591,0.069h0.115c0.015-0.007,0.031-0.01,0.046-0.016c0.048-0.018,0.094-0.041,0.144-0.049  c0.006-0.002,0.011-0.006,0.018-0.007c0.05-0.008,0.096,0.005,0.145,0.007c0.039,0.003,0.077-0.002,0.115,0.006  c0.073,0.016,0.139,0.047,0.203,0.084c0.02,0.011,0.04,0.017,0.059,0.029c0.059,0.041,0.105,0.094,0.151,0.15  c0.016,0.02,0.037,0.029,0.051,0.051c0.003,0.004,0.003,0.01,0.006,0.014c0.028,0.047,0.043,0.1,0.062,0.151  c0.016,0.044,0.038,0.087,0.045,0.132c0.002,0.008,0.006,0.013,0.006,0.013l0.156,1.174l0.001,0.002l0.156,1.133  c0.003,0.019-0.005,0.034-0.003,0.053c0.001,0.017,0.01,0.032,0.01,0.05c0,0.033-0.015,0.062-0.02,0.095  c-0.006,0.052-0.013,0.101-0.029,0.148c-0.016,0.046-0.038,0.085-0.062,0.126c-0.023,0.042-0.048,0.082-0.08,0.119  c-0.031,0.035-0.066,0.064-0.104,0.094s-0.075,0.057-0.118,0.08c-0.045,0.021-0.091,0.035-0.14,0.049  c-0.032,0.008-0.06,0.027-0.094,0.032c-0.032,0.005-0.063,0.006-0.095,0.007l-0.236,0.078l-0.585,0.219l-0.804,0.329l-1.02,0.62  L7.69,59.151l0.18,0.812l1.339,0.268l1.188,0.074h0.945h0.58l0.138-0.03c0.033-0.022,0.071-0.028,0.107-0.044  c0.035-0.017,0.063-0.042,0.102-0.053c0.012-0.004,0.022,0,0.033-0.003c0.053-0.013,0.104-0.011,0.156-0.013  c0.048-0.001,0.095-0.006,0.142,0.001c0.039,0.007,0.074,0.024,0.113,0.038c0.053,0.018,0.105,0.033,0.153,0.062  c0.033,0.021,0.059,0.05,0.088,0.075c0.044,0.038,0.087,0.073,0.122,0.121c0.006,0.009,0.017,0.013,0.022,0.022  c0.022,0.033,0.027,0.071,0.044,0.106c0.016,0.036,0.042,0.065,0.053,0.104l0.306,1.069l0.383,1.072  c0.015,0.041,0.011,0.082,0.018,0.123c0.008,0.043,0.026,0.084,0.026,0.129c0,0-0.004,0.014-0.004,0.021  c-0.002,0.057-0.02,0.109-0.033,0.163c-0.011,0.041-0.014,0.083-0.031,0.121c-0.02,0.045-0.053,0.081-0.082,0.121  c-0.027,0.038-0.049,0.079-0.082,0.112c-0.03,0.029-0.069,0.047-0.104,0.07c-0.046,0.031-0.09,0.065-0.144,0.086  c-0.007,0.003-0.011,0.008-0.018,0.011c-0.043,0.016-0.087,0.016-0.13,0.022l-0.141,0.105c-0.026,0.02-0.056,0.027-0.083,0.044  c-0.019,0.011-0.03,0.027-0.05,0.036l-0.517,0.241l-0.699,0.524l-0.938,0.788l-0.921,0.921l0.303,0.783h1.332l1.209-0.073  l0.908-0.218l0.541-0.145l0.337-0.112c0.042-0.014,0.083-0.009,0.126-0.016c0.037-0.006,0.071-0.022,0.111-0.022h0.117  c0.035,0,0.064,0.016,0.098,0.02c0.057,0.008,0.113,0.014,0.167,0.033c0.044,0.018,0.08,0.045,0.12,0.068  c0.042,0.025,0.084,0.048,0.121,0.082c0.04,0.037,0.068,0.082,0.099,0.127c0.021,0.029,0.05,0.052,0.066,0.085l0.498,0.996  l0.533,0.914c0.021,0.037,0.025,0.077,0.04,0.116c0.018,0.049,0.041,0.095,0.049,0.145c0.008,0.048,0.001,0.094,0,0.141  c-0.002,0.049,0.001,0.098-0.01,0.146c-0.011,0.046-0.034,0.085-0.053,0.128c-0.02,0.045-0.035,0.092-0.063,0.133  c-0.028,0.039-0.067,0.068-0.103,0.103c-0.031,0.03-0.055,0.067-0.092,0.092l-0.079,0.053l-0.239,0.205  c-0.005,0.004-0.011,0.005-0.016,0.009c-0.004,0.004-0.006,0.009-0.01,0.012l-0.504,0.396l-0.577,0.614c-0.001,0-0.001,0-0.001,0  l-0.816,0.892l-0.751,1.161l0.44,0.697l1.347-0.276l1.155-0.261l0.803-0.314l0.55-0.293c0.003-0.002,0.007-0.002,0.011-0.003  c0.002-0.001,0.004-0.005,0.007-0.006l0.27-0.135l0.079-0.053c0.036-0.024,0.078-0.03,0.116-0.048  c0.048-0.021,0.094-0.048,0.144-0.059c0.046-0.01,0.092-0.004,0.137-0.006c0.051,0,0.1-0.008,0.148,0.002  c0.049,0.008,0.093,0.031,0.139,0.049c0.043,0.017,0.088,0.027,0.127,0.052c0.044,0.026,0.077,0.067,0.114,0.103  c0.031,0.03,0.068,0.051,0.095,0.086l0.659,0.892l0.695,0.889c0.022,0.028,0.029,0.062,0.046,0.093  c0.026,0.044,0.052,0.086,0.067,0.134c0.016,0.046,0.021,0.091,0.026,0.138c0.007,0.049,0.014,0.095,0.011,0.144  c-0.003,0.048-0.015,0.091-0.026,0.137c-0.013,0.048-0.023,0.093-0.045,0.138s-0.052,0.082-0.082,0.123  c-0.021,0.027-0.032,0.061-0.058,0.087l-0.091,0.091l-0.176,0.211c-0.001,0.001-0.002,0.002-0.003,0.002l-0.001,0.002l-0.4,0.473  l-0.509,0.764l-0.6,1.049l-0.604,1.242l0.558,0.576l1.301-0.445l1.074-0.466l0.717-0.502c0.004-0.003,0.009-0.003,0.014-0.006  c0.004-0.003,0.006-0.008,0.011-0.011l0.524-0.337l0.188-0.141l0.007-0.011c0.013-0.019,0.032-0.028,0.046-0.046  s0.02-0.039,0.035-0.056c0.021-0.021,0.048-0.031,0.07-0.049c0.038-0.033,0.076-0.061,0.119-0.084  c0.045-0.025,0.089-0.042,0.137-0.057c0.043-0.014,0.085-0.023,0.13-0.029c0.051-0.006,0.101-0.005,0.152,0  c0.044,0.004,0.086,0.01,0.129,0.021c0.051,0.014,0.098,0.035,0.146,0.06c0.025,0.013,0.053,0.016,0.076,0.031  c0.019,0.013,0.028,0.032,0.046,0.046s0.039,0.02,0.056,0.035l0.812,0.772l0.841,0.727c0.015,0.013,0.021,0.03,0.034,0.044  c0.037,0.037,0.066,0.078,0.095,0.121c0.025,0.04,0.05,0.077,0.066,0.12c0.02,0.046,0.029,0.092,0.039,0.14  c0.009,0.047,0.018,0.09,0.018,0.137c0,0.048-0.008,0.094-0.018,0.142c-0.009,0.05-0.02,0.097-0.039,0.145  c-0.007,0.018-0.006,0.037-0.015,0.055l-0.078,0.156c-0.007,0.015-0.022,0.02-0.03,0.032c-0.013,0.022-0.016,0.047-0.03,0.068  l-0.175,0.244l-0.324,0.541l-0.353,0.74l-0.411,1.196l-0.387,1.301l0.666,0.504l1.222-0.713l0.962-0.666l0.688-0.543l0.427-0.463  c0.004-0.004,0.009-0.005,0.012-0.009c0.004-0.004,0.005-0.009,0.009-0.013l0.148-0.148l0.023-0.047  c0.009-0.018,0.024-0.028,0.034-0.044c0.011-0.018,0.013-0.038,0.024-0.055c0.02-0.027,0.048-0.042,0.069-0.065  c0.033-0.036,0.066-0.07,0.105-0.099c0.04-0.03,0.082-0.053,0.127-0.072c0.043-0.02,0.083-0.037,0.128-0.049  c0.048-0.012,0.095-0.017,0.145-0.02c0.047-0.002,0.092-0.003,0.139,0.004c0.05,0.007,0.098,0.021,0.146,0.039  c0.029,0.011,0.06,0.01,0.088,0.024c0.018,0.009,0.028,0.024,0.044,0.034c0.018,0.011,0.038,0.013,0.055,0.024l0.928,0.657  l0.911,0.569c0.033,0.021,0.053,0.053,0.082,0.077c0.038,0.033,0.078,0.064,0.108,0.104c0.03,0.038,0.049,0.08,0.07,0.123  s0.045,0.084,0.059,0.131c0.013,0.045,0.014,0.092,0.018,0.139c0.004,0.049,0.011,0.096,0.005,0.145  c-0.005,0.049-0.023,0.094-0.038,0.142c-0.012,0.037-0.013,0.075-0.03,0.111c-0.005,0.011-0.015,0.019-0.021,0.029  c-0.002,0.006-0.001,0.013-0.004,0.019l-0.154,0.348l-0.205,0.512l-0.219,0.912l-0.222,1.147l-0.103,1.367l0.707,0.372l1.079-0.836  l0.837-0.873l0.601-0.713l0.34-0.441l0.087-0.174l0.019-0.076c0.005-0.02,0.019-0.034,0.025-0.053  c0.007-0.021,0.004-0.041,0.013-0.062c0.013-0.03,0.037-0.05,0.053-0.077c0.025-0.042,0.05-0.082,0.082-0.118  c0.033-0.038,0.069-0.067,0.108-0.098c0.038-0.028,0.075-0.055,0.118-0.076c0.042-0.021,0.084-0.034,0.13-0.047  c0.048-0.014,0.095-0.024,0.145-0.027c0.049-0.004,0.095,0.001,0.145,0.007c0.03,0.004,0.061-0.003,0.091,0.005  c0.02,0.005,0.034,0.019,0.054,0.025s0.041,0.005,0.061,0.013l1.094,0.469l0.001,0.001l1.041,0.424  c0.01,0.004,0.015,0.012,0.023,0.016c0.01,0.005,0.02,0.003,0.028,0.008c0.037,0.019,0.062,0.05,0.094,0.073  c0.042,0.029,0.085,0.056,0.119,0.093c0.033,0.036,0.054,0.077,0.079,0.118s0.053,0.079,0.07,0.124  c0.018,0.046,0.021,0.095,0.029,0.144c0.008,0.045,0.02,0.09,0.019,0.137c-0.001,0.051-0.017,0.1-0.028,0.15  c-0.01,0.039-0.007,0.078-0.022,0.115c-0.005,0.011-0.013,0.019-0.018,0.029c-0.003,0.007-0.002,0.016-0.006,0.022l-0.048,0.096  l-0.048,0.167l-0.106,0.602l-0.109,0.878v1.244l0.141,1.367l0.824,0.249l0.852-1.055l0.708-1.007l0.431-0.718l0.242-0.588  l0.102-0.271l0.028-0.113c0,0,0.005-0.008,0.006-0.012l0.001-0.013c0.015-0.052,0.047-0.092,0.07-0.138  c0.021-0.037,0.033-0.08,0.059-0.113c0.041-0.054,0.094-0.092,0.146-0.133c0.023-0.018,0.042-0.042,0.068-0.057  c0.046-0.027,0.099-0.039,0.15-0.055c0.042-0.014,0.08-0.035,0.124-0.041c0.038-0.006,0.077,0.005,0.116,0.006  c0.057,0.001,0.111-0.006,0.168,0.009c0.005,0.001,0.008,0.005,0.013,0.006c0.004,0.001,0.008,0,0.012,0.001l1.062,0.303l1.111,0.23  c0.015,0.003,0.025,0.014,0.04,0.018s0.03,0,0.045,0.005c0.035,0.012,0.061,0.037,0.093,0.054c0.045,0.022,0.089,0.043,0.128,0.073  c0.038,0.03,0.067,0.065,0.099,0.102c0.032,0.036,0.062,0.071,0.087,0.112c0.024,0.043,0.039,0.087,0.055,0.133  c0.015,0.045,0.03,0.088,0.037,0.135c0.008,0.051,0.003,0.102-0.001,0.153c-0.002,0.034,0.007,0.067,0,0.103  c-0.003,0.016-0.014,0.028-0.018,0.044c-0.004,0.014,0,0.027-0.005,0.041l-0.001,0.003v0.268v0.582l0.036,0.932l0.221,1.18  l0.352,1.3l0.843,0.094l0.644-1.218v-0.001l0.528-1.058l0.33-0.879l0.169-0.506l0.03-0.305c0.003-0.027,0.018-0.051,0.023-0.078  s0.001-0.057,0.011-0.085l0.039-0.117c0.004-0.012,0.013-0.019,0.018-0.03c0.02-0.053,0.05-0.097,0.081-0.143  c0.025-0.037,0.047-0.075,0.078-0.107c0.02-0.02,0.045-0.034,0.067-0.052c0.058-0.047,0.116-0.087,0.186-0.116  c0.004-0.001,0.009-0.002,0.013-0.003c0.08-0.031,0.165-0.051,0.254-0.053c0.015-0.001,0.026-0.009,0.041-0.009l1.133,0.039  c0.005,0,0.01,0.004,0.015,0.004c0.004,0,0.008-0.002,0.012-0.002l1.133,0.078c0.042,0.003,0.077,0.022,0.117,0.032  c0.05,0.012,0.1,0.019,0.146,0.04c0.044,0.021,0.079,0.051,0.117,0.079c0.039,0.028,0.08,0.053,0.113,0.089  c0.032,0.034,0.053,0.075,0.078,0.115c0.026,0.042,0.056,0.08,0.073,0.127c0.018,0.045,0.021,0.094,0.028,0.143  c0.008,0.041,0.025,0.079,0.025,0.123l-0.003,0.015l0.036,0.365l0.072,0.577l0.216,0.898l0.399,1.088l0.587,1.21l0.864-0.038  l0.463-1.256l0.296-1.183l0.183-0.877l0.035-0.593v-0.285v-0.117c0-0.033,0.015-0.062,0.02-0.095  c0.006-0.052,0.013-0.101,0.029-0.148c0.016-0.045,0.038-0.085,0.062-0.126c0.023-0.042,0.048-0.082,0.08-0.119  c0.031-0.035,0.066-0.064,0.104-0.094s0.075-0.058,0.119-0.08c0.044-0.021,0.09-0.035,0.139-0.049  c0.032-0.008,0.06-0.027,0.094-0.032l1.133-0.156c0.001,0,0.001,0,0.001,0l1.089-0.155c0.045-0.008,0.086,0.004,0.129,0.004  c0.039,0.002,0.077-0.003,0.114,0.004c0.072,0.013,0.137,0.04,0.2,0.073c0.021,0.011,0.042,0.017,0.062,0.029  c0.057,0.036,0.103,0.082,0.147,0.133c0.022,0.024,0.046,0.046,0.065,0.073c0.031,0.047,0.051,0.099,0.072,0.152  c0.013,0.031,0.035,0.058,0.044,0.092l0.023,0.096l0.095,0.22c0.006,0.015,0.004,0.029,0.009,0.044  c0.006,0.015,0.017,0.025,0.021,0.04l0.179,0.608l0.391,0.816l0.593,1.037l0.781,1.087l0.779-0.195l0.267-1.333l0.111-1.184v-0.93  l-0.073-0.623v-0.001l-0.03-0.216l-0.03-0.119c-0.015-0.059-0.007-0.114-0.008-0.172c-0.001-0.041-0.012-0.082-0.006-0.121  c0.009-0.055,0.034-0.102,0.054-0.152c0.016-0.039,0.021-0.082,0.043-0.119c0.025-0.042,0.064-0.073,0.098-0.109  c0.031-0.035,0.056-0.076,0.094-0.104c0.041-0.031,0.093-0.046,0.141-0.068c0.042-0.021,0.078-0.048,0.124-0.061l0.006-0.001  c0.001,0,0.001-0.001,0.001-0.001h0.001l1.015-0.263l1.062-0.38c0.035-0.013,0.07-0.009,0.106-0.017  c0.047-0.009,0.093-0.02,0.14-0.021c0.052-0.001,0.101,0.009,0.15,0.02c0.045,0.009,0.088,0.017,0.13,0.033  c0.046,0.019,0.085,0.044,0.126,0.071c0.041,0.025,0.079,0.051,0.114,0.084c0.036,0.034,0.062,0.075,0.092,0.117  c0.021,0.029,0.048,0.051,0.064,0.083c0.007,0.015,0.007,0.03,0.013,0.046c0.005,0.012,0.016,0.02,0.02,0.033  c0.006,0.011,0.017,0.018,0.021,0.029l0.137,0.309l0.312,0.52l0.51,0.692l0.758,0.947l0.953,0.985l0.816-0.369v-1.334l-0.111-1.184  l-0.182-0.91l-0.142-0.602l-0.085-0.198l-0.065-0.131c-0.186-0.37-0.035-0.82,0.336-1.006l1.016-0.508  c0.002-0.001,0.003-0.001,0.005-0.001c0.002-0.002,0.003-0.003,0.005-0.004l1.055-0.508c0.024-0.012,0.05-0.01,0.075-0.02  c0.024-0.008,0.043-0.025,0.068-0.032c0.024-0.007,0.048,0,0.072-0.003c0.052-0.008,0.102-0.011,0.153-0.008  c0.045,0.003,0.088,0.009,0.131,0.02c0.051,0.012,0.098,0.029,0.145,0.053c0.04,0.019,0.075,0.039,0.111,0.064  c0.042,0.029,0.078,0.062,0.113,0.102c0.032,0.035,0.061,0.072,0.086,0.114c0.014,0.022,0.034,0.036,0.046,0.061  s0.01,0.05,0.02,0.075l0.001,0.003l0.068,0.068c0.016,0.016,0.021,0.036,0.034,0.052c0.014,0.017,0.033,0.025,0.046,0.043  l0.354,0.496l0.631,0.631l0.961,0.777l1.089,0.747l0.698-0.44l-0.232-1.299l-0.332-1.18l-0.302-0.83l-0.253-0.615l-0.099-0.197  c-0.009-0.008-0.012-0.02-0.02-0.029c-0.011-0.013-0.028-0.018-0.038-0.031c-0.02-0.026-0.024-0.058-0.04-0.086  c-0.024-0.043-0.048-0.086-0.062-0.133s-0.022-0.094-0.027-0.142c-0.006-0.047-0.01-0.092-0.006-0.14  c0.003-0.049,0.015-0.094,0.027-0.141c0.013-0.046,0.025-0.089,0.047-0.132c0.022-0.046,0.052-0.085,0.083-0.126  c0.02-0.024,0.029-0.055,0.052-0.077c0.014-0.014,0.032-0.019,0.047-0.031s0.022-0.03,0.038-0.042l0.892-0.659l0.889-0.695  c0.029-0.023,0.064-0.03,0.097-0.049c0.041-0.024,0.08-0.048,0.125-0.063c0.052-0.018,0.103-0.024,0.155-0.03  c0.042-0.005,0.083-0.011,0.125-0.009c0.052,0.003,0.101,0.016,0.151,0.029c0.044,0.012,0.086,0.021,0.127,0.041  c0.046,0.022,0.085,0.054,0.127,0.085c0.027,0.021,0.06,0.031,0.085,0.057l0.078,0.078c0.007,0.007,0.009,0.017,0.016,0.024  c0.007,0.007,0.017,0.01,0.023,0.018l0.173,0.201l0.427,0.296c0.001,0.001,0.002,0.003,0.003,0.003  c0.002,0.002,0.004,0.002,0.006,0.003l0.798,0.569l1.038,0.631l1.184,0.559l0.637-0.561l-0.451-1.316l-0.516-1.032l-0.441-0.81  l-0.364-0.51l-0.115-0.161l-0.003-0.002c-0.019-0.013-0.027-0.031-0.045-0.045c-0.018-0.015-0.039-0.021-0.057-0.036  c-0.021-0.021-0.03-0.048-0.049-0.07c-0.032-0.039-0.062-0.077-0.085-0.121c-0.023-0.043-0.04-0.086-0.055-0.133  c-0.014-0.045-0.024-0.088-0.029-0.135c-0.006-0.05-0.005-0.097-0.001-0.146c0.004-0.046,0.011-0.09,0.023-0.135  c0.014-0.05,0.033-0.096,0.058-0.142c0.013-0.025,0.015-0.054,0.031-0.077c0.013-0.019,0.032-0.028,0.046-0.045  c0.014-0.018,0.02-0.04,0.035-0.057l0.772-0.812l0.727-0.841c0.023-0.027,0.055-0.039,0.08-0.062  c0.039-0.033,0.075-0.066,0.118-0.092c0.043-0.024,0.088-0.039,0.134-0.055c0.045-0.016,0.087-0.03,0.134-0.037  c0.05-0.006,0.098-0.004,0.146,0c0.047,0.002,0.091,0.005,0.137,0.016c0.05,0.014,0.095,0.035,0.142,0.059  c0.03,0.015,0.063,0.019,0.093,0.038l0.114,0.076l0.276,0.173l0.528,0.302l0.799,0.399l1.095,0.401l1.362,0.341l0.487-0.627  l-0.671-1.207l-0.702-0.96l-0.547-0.693l-0.396-0.363l-0.282-0.212c-0.036-0.027-0.058-0.065-0.087-0.098  c-0.02-0.021-0.046-0.029-0.062-0.052l-0.117-0.156c-0.01-0.013-0.012-0.029-0.021-0.043c-0.029-0.046-0.049-0.093-0.067-0.142  c-0.017-0.043-0.034-0.084-0.043-0.129c-0.009-0.047-0.008-0.094-0.007-0.143c0-0.049-0.001-0.094,0.009-0.141  s0.028-0.088,0.046-0.133c0.02-0.047,0.038-0.092,0.066-0.135c0.01-0.014,0.012-0.031,0.022-0.045l0.636-0.822l0.559-0.969  c0.013-0.021,0.033-0.033,0.047-0.053c0.031-0.045,0.065-0.082,0.104-0.118c0.033-0.03,0.065-0.057,0.104-0.08  c0.043-0.027,0.087-0.049,0.135-0.066c0.044-0.017,0.086-0.028,0.131-0.036c0.047-0.009,0.094-0.012,0.143-0.011  c0.051,0.001,0.099,0.007,0.149,0.019c0.024,0.006,0.05,0,0.074,0.009l0.117,0.039c0.013,0.004,0.021,0.014,0.032,0.019  c0.012,0.004,0.023,0.003,0.035,0.008l0.334,0.148l0.574,0.215l0.842,0.257l1.182,0.222l1.337,0.133l0.386-0.811l-0.903-1.004  l-0.821-0.857l-0.688-0.579l-0.474-0.339l-0.26-0.13c-0.037-0.019-0.062-0.05-0.094-0.073c-0.033-0.023-0.071-0.037-0.102-0.067  l-0.078-0.078l-0.003-0.005c-0.064-0.064-0.113-0.142-0.149-0.225c-0.003-0.006-0.01-0.012-0.013-0.02  c-0.04-0.098-0.053-0.205-0.049-0.314c0.004-0.086,0.019-0.173,0.053-0.255c0.001-0.001,0-0.003,0.001-0.004l0.421-0.995  l0.384-1.074c0.005-0.015,0.017-0.023,0.022-0.038c0.007-0.015,0.006-0.03,0.013-0.045c0.017-0.032,0.045-0.054,0.065-0.083  c0.028-0.042,0.056-0.083,0.092-0.117c0.033-0.032,0.07-0.056,0.107-0.08c0.045-0.029,0.086-0.057,0.135-0.076  c0.038-0.016,0.077-0.021,0.117-0.029c0.055-0.013,0.106-0.022,0.163-0.021c0.045,0,0.087,0.011,0.132,0.02  c0.037,0.008,0.074,0.003,0.111,0.017c0.015,0.005,0.024,0.017,0.039,0.023c0.015,0.006,0.029,0.005,0.044,0.012l0.083,0.042  l0.221,0.055c0,0,0.001,0,0.002,0l0.608,0.143l0.896,0.072h1.18l1.333-0.133l0.264-0.812l-1.049-0.88l-0.964-0.704l-0.78-0.462  l-0.517-0.206l-0.312-0.117c-0.017-0.006-0.027-0.02-0.043-0.026c-0.036-0.017-0.074-0.029-0.109-0.052l-0.117-0.078  c-0.002-0.001-0.004-0.004-0.006-0.006c-0.06-0.04-0.105-0.096-0.15-0.151c-0.018-0.021-0.041-0.035-0.056-0.057  c-0.03-0.047-0.043-0.102-0.062-0.152c-0.014-0.039-0.037-0.073-0.045-0.113c-0.006-0.031,0.002-0.065-0.001-0.098  c-0.004-0.065-0.01-0.131,0.003-0.195c0.001-0.003-0.001-0.006-0.001-0.006l0.235-1.097l0.234-1.094l0.005-0.013  c0.002-0.004,0-0.008,0.001-0.012c0.013-0.049,0.042-0.088,0.063-0.133c0.02-0.041,0.032-0.087,0.059-0.123  c0.039-0.055,0.092-0.095,0.143-0.136c0.023-0.019,0.041-0.044,0.065-0.06c0.058-0.037,0.123-0.056,0.188-0.075  c0.027-0.009,0.052-0.024,0.08-0.029c0.055-0.01,0.11-0.001,0.167,0.003c0.04,0.002,0.079-0.008,0.119,0.001  c0.005,0.001,0.008,0.004,0.012,0.005c0.005,0.002,0.009,0,0.013,0.001l0.066,0.017h0.221h0.656l0.856-0.035l1.166-0.219  l1.371-0.377l0.108-0.811l-1.186-0.698l-1.084-0.522l-0.863-0.324l-0.562-0.141c-0.001,0-0.001,0-0.001,0l-0.273-0.061h-0.033  c-0.019,0-0.035-0.001-0.054-0.002c-0.043-0.003-0.078-0.023-0.118-0.033c-0.049-0.012-0.098-0.019-0.143-0.039  c-0.045-0.021-0.081-0.052-0.12-0.081c-0.038-0.028-0.078-0.052-0.11-0.087c-0.033-0.035-0.055-0.076-0.08-0.117  s-0.054-0.079-0.071-0.125s-0.021-0.096-0.029-0.145c-0.007-0.041-0.024-0.078-0.024-0.121c0-0.01,0.005-0.018,0.006-0.027  c0,0-0.005-0.018-0.004-0.026l0.076-1.066V50.625z M84.595,59.144l-3.507,8.462l-0.017,0.02l-20.758-15.02  c0.003-0.013,0.011-0.023,0.013-0.037l0.352-2.422c0.006-0.037-0.006-0.071-0.006-0.107s0.012-0.07,0.006-0.107l-0.352-2.422  c-0.002-0.014-0.011-0.024-0.014-0.038l20.711-15.06l0.052,0.069l3.52,8.455l1.186,9.103L84.595,59.144z M33.164,80.438  l-7.266-5.583l-5.543-7.225l-3.518-8.489l-0.733-5.5h25.394l0.515,1.286c0.021,0.054,0.054,0.1,0.086,0.146  c0.008,0.012,0.009,0.025,0.018,0.036l1.484,1.914c0.017,0.021,0.042,0.029,0.06,0.048c0.024,0.025,0.039,0.058,0.067,0.08  l0.725,0.574l-7.831,24.127L33.164,80.438z M36.619,18.227l7.829,24.154l-0.708,0.537c-0.026,0.02-0.041,0.049-0.063,0.072  c-0.024,0.023-0.055,0.038-0.076,0.065l-1.484,1.914c-0.023,0.03-0.03,0.065-0.049,0.099c-0.017,0.029-0.042,0.051-0.055,0.083  l-0.515,1.286H16.104l0.733-5.498l3.519-8.453l5.544-7.226l7.264-5.62L36.619,18.227z M46.451,57.393l-0.66-0.521  c0,0,0,0-0.001-0.001l-1.059-0.84l-1.366-1.761l-0.663-1.658c0,0-0.003-0.003-0.004-0.005c-0.002-0.007-0.005-0.012-0.008-0.018  c0,0-0.001-0.007-0.002-0.01l-0.151-0.332l-0.32-2.209l0.32-2.209l0.151-0.332c0.001-0.003,0.001-0.006,0.001-0.006  c0.004-0.01,0.007-0.014,0.009-0.02c0.001-0.003,0.003-0.004,0.003-0.004l0.664-1.661l1.361-1.755l1.053-0.799  c0.002-0.002,0.002-0.004,0.004-0.005c0.003-0.001,0.006-0.002,0.008-0.004l0.66-0.521l2.082-0.861l2.078-0.273  c0.035,0.005,0.068,0.02,0.105,0.02c0.033,0,0.062-0.016,0.094-0.021l2.089,0.274l2.042,0.86l0.662,0.522  c0.004,0.003,0.01,0.005,0.015,0.008c0.003,0.002,0.004,0.006,0.007,0.008l1.082,0.794l1.322,1.752l0.703,1.664l0.121,0.331  l0.324,2.237l-0.324,2.237l-0.121,0.331l-0.703,1.664l-1.328,1.76l-1.089,0.835c0,0-0.001,0.002-0.002,0.003  c-0.002,0.001-0.005,0.002-0.007,0.003l-0.662,0.522l-2.034,0.857l-2.19,0.251l-2.191-0.251L46.451,57.393z M56.087,41.715  l-0.296-0.233c-0.027-0.021-0.061-0.028-0.09-0.045c-0.029-0.018-0.051-0.044-0.084-0.058l-2.227-0.938  c-0.032-0.014-0.066-0.011-0.099-0.02c-0.033-0.009-0.061-0.027-0.095-0.032l-1.914-0.251l-7.895-24.165l7.332-0.999l9.06,1.147  l8.448,3.517l7.264,5.621l1.153,1.5L56.087,41.715z M51.28,59.948l1.905-0.219c0.037-0.005,0.066-0.023,0.102-0.032  c0.034-0.01,0.07-0.008,0.104-0.021l2.227-0.938c0.022-0.01,0.037-0.028,0.058-0.039c0.039-0.021,0.08-0.035,0.116-0.063  l0.296-0.233l20.559,14.955l-1.151,1.498l-7.266,5.584l-8.448,3.517l-9.063,1.147l-7.328-0.963L51.28,59.948z"></path><polygon fill="#00DCFF" points="51.267,51.029 51.529,50.819 51.713,50.611 51.813,50.371 51.84,50.039 51.814,49.721   51.714,49.498 51.524,49.262 51.271,49.084 50.979,48.938 50.718,48.916 50.412,48.939 50.144,49.074 49.902,49.262 49.692,49.496   49.611,49.719 49.562,50.039 49.612,50.367 49.693,50.611 49.904,50.822 50.145,51.035 50.413,51.147 50.711,51.193 50.979,51.148   "></polygon></svg>