<svg fill="#00DCFF" xmlns="http://www.w3.org/2000/svg" xmlns:xlink="http://www.w3.org/1999/xlink" version="1.1" x="0px" y="0px" viewBox="0 0 100 100" enable-background="new 0 0 100 100" xml:space="preserve"><path d="M49.103,60.656c-4.5,0-8.957,0-13.469,0c0-7.273,0-14.513,0-21.873c-1.303,0.753-2.514,1.452-3.725,2.152  c-0.034-0.019-0.068-0.039-0.102-0.058c1.739-4.257,3.478-8.515,5.259-12.877c1.779,4.354,3.522,8.619,5.323,13.029  c-1.329-0.767-2.546-1.471-3.811-2.201c0,6.318,0,12.587,0,18.885c3.647,0,7.288,0,10.966,0c0-13.816,0-27.629,0-41.507  c-1.239,0.716-2.464,1.423-3.81,2.2c1.793-4.391,3.539-8.665,5.322-13.031c1.782,4.359,3.525,8.626,5.326,13.031  c-1.339-0.773-2.559-1.478-3.838-2.217c0,9.103,0,18.134,0,27.192c3.748,0,7.48,0,11.254,0c0-5.028,0-10.048,0-15.142  c-1.252,0.723-2.465,1.423-3.678,2.124c-0.031-0.02-0.061-0.04-0.092-0.061c1.74-4.261,3.48-8.523,5.26-12.88  c1.78,4.356,3.524,8.624,5.324,13.03c-1.339-0.773-2.56-1.478-3.848-2.223c0,6.083,0,12.086,0,18.129c-4.681,0-9.317,0-14.011,0  c0,0.199,0,0.36,0,0.52c0,11.713,0.001,23.425-0.007,35.138c0,0.347,0.075,0.514,0.434,0.643c2.736,0.982,4.437,3.705,4.176,6.627  c-0.253,2.831-2.489,5.202-5.35,5.672c-3.509,0.577-6.762-1.796-7.327-5.344c-0.473-2.966,1.218-5.874,4.042-6.936  c0.264-0.099,0.409-0.193,0.409-0.526c-0.012-7.04-0.009-14.079-0.01-21.119C49.12,60.93,49.111,60.826,49.103,60.656z M54.46,88.67  c0.007-1.911-1.545-3.473-3.447-3.49c-1.828-0.017-3.482,1.438-3.5,3.474c-0.016,1.904,1.557,3.468,3.463,3.471  C52.893,92.128,54.453,90.581,54.46,88.67z"></path></svg>