<svg fill="#00DCFF" xmlns:dc="http://purl.org/dc/elements/1.1/" xmlns:cc="http://creativecommons.org/ns#" xmlns:rdf="http://www.w3.org/1999/02/22-rdf-syntax-ns#" xmlns:svg="http://www.w3.org/2000/svg" xmlns="http://www.w3.org/2000/svg" xmlns:sodipodi="http://sodipodi.sourceforge.net/DTD/sodipodi-0.dtd" xmlns:inkscape="http://www.inkscape.org/namespaces/inkscape" version="1.1" x="0px" y="0px" viewBox="0 0 100 100"><g transform="translate(0,-952.36218)"><path style="font-size:medium;font-style:normal;font-variant:normal;font-weight:normal;font-stretch:normal;text-indent:0;text-align:start;text-decoration:none;line-height:normal;letter-spacing:normal;word-spacing:normal;text-transform:none;direction:ltr;block-progression:tb;writing-mode:lr-tb;text-anchor:start;baseline-shift:baseline;opacity:1;color:#000000;fill:#00DCFF;fill-opacity:1;stroke:none;stroke-width:1.42857145999999990;marker:none;visibility:visible;display:inline;overflow:visible;enable-background:accumulate;font-family:Sans;-inkscape-font-specification:Sans" d="M 50 17 C 41.727574 17 35 23.72757 35 32 C 35 34.227229 35.500154 36.347222 36.375 38.25 L 20.6875 48 C 19.038036 46.163159 16.654373 45 14 45 C 9.0412816 45 5 49.0413 5 54 C 5 58.9587 9.0412816 63 14 63 C 18.958718 63 23 58.9587 23 54 C 23 52.415882 22.598029 50.920021 21.875 49.625 L 37.34375 40 C 39.838698 43.931498 44.091386 46.642541 49 46.96875 L 49 65.0625 C 44.516118 65.568791 41 69.384143 41 74 C 41 78.9587 45.041282 83 50 83 C 54.958718 83 59 78.9587 59 74 C 59 69.384143 55.483882 65.568791 51 65.0625 L 51 46.96875 C 55.908614 46.642541 60.161302 43.931498 62.65625 40 L 78.125 49.625 C 77.401971 50.920021 77 52.415882 77 54 C 77 58.9587 81.041282 63 86 63 C 90.958718 63 95 58.9587 95 54 C 95 49.0413 90.958718 45 86 45 C 83.345627 45 80.961964 46.163159 79.3125 48 L 63.625 38.25 C 64.499846 36.347222 65 34.227229 65 32 C 65 23.72757 58.272426 17 50 17 z M 50 19 C 57.191547 19 63 24.80845 63 32 C 63 39.19155 57.191547 45 50 45 C 42.808453 45 37 39.19155 37 32 C 37 24.80845 42.808453 19 50 19 z M 14 47 C 17.877838 47 21 50.1221 21 54 C 21 57.8778 17.877838 61 14 61 C 10.122162 61 7 57.8778 7 54 C 7 50.1221 10.122162 47 14 47 z M 86 47 C 89.877838 47 93 50.1221 93 54 C 93 57.8778 89.877838 61 86 61 C 82.122162 61 79 57.8778 79 54 C 79 50.1221 82.122162 47 86 47 z M 50 67 C 53.877838 67 57 70.1221 57 74 C 57 77.8778 53.877838 81 50 81 C 46.122162 81 43 77.8778 43 74 C 43 70.1221 46.122162 67 50 67 z " transform="translate(0,952.36218)"></path></g></svg>