<svg fill="#00DCFF" xmlns="http://www.w3.org/2000/svg" xmlns:xlink="http://www.w3.org/1999/xlink" version="1.1" x="0px" y="0px" viewBox="0 0 100 100" enable-background="new 0 0 100 100" xml:space="preserve"><path d="M50,83.659c-0.242,0-0.483-0.07-0.69-0.208c-0.085-0.056-0.161-0.121-0.228-0.193c-5.857-2.317-12.002-3.492-18.272-3.492  c-8.989,0-15.962,2.377-19.317,3.794c-0.386,0.163-0.828,0.123-1.177-0.11c-0.35-0.231-0.56-0.623-0.56-1.042V22.979  c0-0.428,0.219-0.826,0.58-1.055c0.9-0.572,9.125-5.583,20.471-5.583c6.688,0,13.171,1.727,19.275,5.134  c2.419-1.383,9.891-5.134,19.718-5.134c6.874,0,13.529,1.824,19.78,5.421c0.388,0.223,0.664,0.657,0.664,1.104v59.412  c0,0.416-0.207,0.805-0.552,1.037c-0.347,0.232-0.784,0.277-1.169,0.121c-5.991-2.436-12.289-3.671-18.72-3.671  c-8.99,0-15.962,2.378-19.317,3.795C50.33,83.626,50.165,83.659,50,83.659z M51.25,23.686v56.883  c3.926-1.464,10.468-3.303,18.554-3.303c6.143,0,12.168,1.072,17.94,3.189V23.596c-5.724-3.164-11.743-4.755-17.944-4.755  C60.411,18.841,53.363,22.462,51.25,23.686z M12.256,23.686v56.882c3.926-1.464,10.468-3.302,18.554-3.302  c6.142,0,12.168,1.072,17.94,3.19v-56.86c-5.706-3.159-11.734-4.755-17.943-4.755C21.43,18.841,14.373,22.462,12.256,23.686z"></path></svg>